# xmcd
#
# Track frame offsets: 
#        150
#        15864
#        31245
#        48195
#        62147
#        79281
#        96778
#        113235
#        127288
#        138791
#        155877
#        171912
#        188387
#        203727
#        217884
#        230398
#        244017
#        260569
#
# Disc length: 3703 seconds
#
# Revision: 4
# Processed by: cddbd v1.5.2PL0 Copyright (c) Steve Scherf et al.
# Submitted via: ExactAudioCopy v0.99pb5
#
DISCID=ef0e7512
DTITLE=Various Artist - Hott Country 99
DYEAR=2004
DGENRE=Country
TTITLE0=Terri Clark - Girls Lie Too
TTITLE1=Josh Turner - What It Ain't
TTITLE2=Sara Evans - Suds In The Bucket
TTITLE3=George Canyon - Good Day For A Ride
TTITLE4=Diane Chase - The Ride
TTITLE5=Martina Mcbride - How Far
TTITLE6=Blake Shelton - When Somebody Knows You That Well
TTITLE7=David Lee Murphy - Loco
TTITLE8=Jason Mccoy - I Feel A Sin Coming On
TTITLE9=Josh Gracin - I Want To Live
TTITLE10=Phil Vassar - In A Real Love
TTITLE11=Jimmy Wayne - You Are
TTITLE12=John Landry - Drive On
TTITLE13=Trace Adkins - Rough and Ready
TTITLE14=Jake Mathews - Time After Time
TTITLE15=Tracy Lawrence - It's All How You Look At It
TTITLE16=Mary Chapin Carpenter - What Would You Say To Me
TTITLE17=James Otto - Sunday Morning And Saturday Night
EXTD=
EXTT0=
EXTT1=
EXTT2=
EXTT3=
EXTT4=
EXTT5=
EXTT6=
EXTT7=
EXTT8=
EXTT9=
EXTT10=
EXTT11=
EXTT12=
EXTT13=
EXTT14=
EXTT15=
EXTT16=
EXTT17=
PLAYORDER=
